<svg width="20" height="17" viewBox="0 0 20 17" fill="none" xmlns="http://www.w3.org/2000/svg">
<path d="M0.666626 8.68004C0.666626 8.23706 0.995805 7.87097 1.42289 7.81303L1.54163 7.80504L16.923 7.80574L11.3661 2.27162C11.0237 1.93065 11.0225 1.37663 11.3635 1.03419C11.6735 0.722877 12.1595 0.693589 12.5026 0.947015L12.6009 1.03152L19.6592 8.05952C19.7044 8.10447 19.7436 8.15311 19.7769 8.20448C19.7863 8.21994 19.7958 8.23576 19.8049 8.2519C19.8132 8.26573 19.8208 8.28009 19.8279 8.29461C19.8378 8.31574 19.8474 8.33757 19.8562 8.35984C19.8633 8.37701 19.8693 8.39372 19.8747 8.41055C19.8811 8.43143 19.8874 8.45367 19.8928 8.47626C19.8968 8.49203 19.8999 8.5072 19.9027 8.52244C19.9066 8.54511 19.9099 8.56857 19.9123 8.59231C19.9143 8.61041 19.9156 8.62835 19.9162 8.6463C19.9164 8.65719 19.9166 8.66859 19.9166 8.68004L19.9162 8.71394C19.9155 8.73111 19.9143 8.74827 19.9127 8.76538L19.9166 8.68004C19.9166 8.73526 19.9115 8.78928 19.9017 8.84166C19.8995 8.85417 19.8968 8.86701 19.8938 8.8798C19.8876 8.90614 19.8804 8.93151 19.8721 8.95637C19.868 8.96873 19.8633 8.98193 19.8583 8.99503C19.848 9.02136 19.8369 9.04646 19.8247 9.07091C19.819 9.0824 19.8126 9.09444 19.806 9.10635C19.795 9.12578 19.7838 9.14425 19.7719 9.16225C19.7635 9.175 19.7542 9.18826 19.7444 9.20131L19.7369 9.21139C19.7133 9.24219 19.6877 9.27138 19.6603 9.29876L19.6593 9.29957L12.601 16.3287C12.2585 16.6697 11.7045 16.6686 11.3635 16.3262C11.0535 16.0149 11.0263 15.5287 11.2812 15.1867L11.3661 15.0887L16.9206 9.55574L1.54163 9.55504C1.05838 9.55504 0.666626 9.16329 0.666626 8.68004Z" fill="white"/>
</svg>
